<svg xmlns="http://www.w3.org/2000/svg" xmlns:svg="http://www.w3.org/2000/svg" xmlns:xlink="http://www.w3.org/1999/xlink" id="svg1325" width="48" height="48" version="1.1"><title id="title3450">Xfce Panel</title><defs id="defs1327"><linearGradient id="linearGradient2270"><stop id="stop2272" offset="0" stop-color="#fff" stop-opacity="1"/><stop id="stop2274" offset="1" stop-color="#fff" stop-opacity="0"/></linearGradient><linearGradient id="linearGradient2262"><stop id="stop2264" offset="0" stop-color="#d3d7cf" stop-opacity="1"/><stop id="stop2266" offset="1" stop-color="#d3d7cf" stop-opacity="0"/></linearGradient><linearGradient id="linearGradient2252"><stop id="stop2254" offset="0" stop-color="#888a85" stop-opacity="1"/><stop id="stop2256" offset="1" stop-color="#888a85" stop-opacity="0"/></linearGradient><linearGradient id="linearGradient2258" x1="31.875" x2="47.438" y1="17.438" y2="17.438" gradientTransform="translate(0,-8)" gradientUnits="userSpaceOnUse" xlink:href="#linearGradient2252"/><linearGradient id="linearGradient2268" x1="31.873" x2="46.705" y1="20.688" y2="20.688" gradientTransform="translate(0,-8)" gradientUnits="userSpaceOnUse" xlink:href="#linearGradient2262"/><linearGradient id="linearGradient1341" x1="23.997" x2="45.754" y1="18.375" y2="18.375" gradientTransform="translate(0,-8)" gradientUnits="userSpaceOnUse" xlink:href="#linearGradient2270"/><radialGradient id="radialGradient2218" cx="3.624" cy="2.005" r="23" fx="3.624" fy="2.005" gradientTransform="matrix(1.246687e-8,1.125998,-1.627297,0,6.886624,6.5312)" gradientUnits="userSpaceOnUse" xlink:href="#linearGradient2270"/></defs><g id="layer1"><rect id="rect1333" width="46" height="29" x="2.5" y="9.5" fill="url(#linearGradient2268)" fill-opacity="1" stroke="url(#linearGradient2258)" stroke-dasharray="none" stroke-dashoffset="0" stroke-linecap="butt" stroke-linejoin="round" stroke-miterlimit="4" stroke-opacity="1" stroke-width="1"/><rect id="rect2210" width="45" height="27" x="3.5" y="10.5" fill="none" stroke="url(#linearGradient1341)" stroke-dasharray="none" stroke-dashoffset="0" stroke-linecap="butt" stroke-linejoin="round" stroke-miterlimit="4" stroke-opacity="1" stroke-width="1" opacity=".4"/><rect id="rect2216" width="45" height="27" x="3.5" y="10.5" fill="none" stroke="url(#radialGradient2218)" stroke-dasharray="none" stroke-dashoffset="0" stroke-linecap="butt" stroke-linejoin="round" stroke-miterlimit="4" stroke-opacity="1" stroke-width="1"/><g id="g23" fill="#000" fill-opacity=".5" stroke="none" transform="matrix(0.20289449,0,0,0.20289449,-23.044102,-54.513084)"><path id="path14" fill="#020202" fill-opacity="1" fill-rule="evenodd" stroke="#000002" stroke-linecap="butt" stroke-linejoin="miter" stroke-opacity="1" stroke-width="1pt" d="m 143.756,326.774 c 0.538,-0.09 13.953,6.991 22.97,9.438 16.079,4.109 30.756,16.476 37.85,23.58 0.526,0.608 6.093,-4.168 11.919,-3.824 7.958,0.482 32.582,7.406 35.872,2.691 1.995,-2.768 1.852,-6.164 4.341,-7.555 1.34,-0.375 -4.981,-11.936 1.737,-15.64 4.79,-2.394 8.849,11.009 10.079,12.511 0.551,0.672 3.474,0.836 3.128,-0.695 -0.375,-1.663 -5.103,-14.524 0.695,-16.682 9.417,-3.729 7.748,16.456 7.993,17.03 0.521,1.222 32.797,2.164 34.754,16.682 1.132,7.99 -25.858,18.317 -28.498,20.157 -2.639,1.84 -2.419,4.783 -1.39,6.604 1.183,1.975 9.046,8.641 7.994,11.816 -0.723,1.834 -15.398,-4.888 -16.335,-3.475 -2.137,2.699 10.683,9.455 6.256,14.249 -1.755,1.148 -21.947,-8.454 -21.896,-8.341 -0.542,0.206 -28.532,5.113 -50.046,-1.391 -0.758,-0.214 -13.808,12.606 -15.292,12.165 -2.029,-0.744 2.991,-11.15 2.433,-13.207 -0.912,-1.146 -9.251,4.653 -9.731,1.738 -0.574,-3.831 7.318,-8.235 6.951,-10.774 -2.035,-14.424 0.909,-22.847 5.908,-29.888 1.667,-2.592 -19.592,-18.646 -34.983,-24.982 -15.39,-6.336 -23.624,-11.706 -22.709,-12.207 z" transform="translate(4.86564,17.0296)"/><path id="path7" fill="#fff" fill-opacity="1" fill-rule="evenodd" stroke="#000" stroke-linecap="butt" stroke-linejoin="miter" stroke-opacity="1" stroke-width=".8" d="m 286.934,392.031 c -0.169,-0.59 10.503,-7.045 12.048,-5.561 2.781,1.008 -11.95,6.31 -12.048,5.561 z"/><path id="path8" fill="#fff" fill-opacity="1" fill-rule="evenodd" stroke="#000" stroke-linecap="butt" stroke-linejoin="miter" stroke-opacity="1" stroke-width=".8" d="m 292.031,397.901 c -0.94,-0.568 6.389,-9.114 8.187,-8.187 2.625,2.608 -8.31,8.39 -8.187,8.187 z"/><path id="path13" fill="#020202" fill-opacity="1" fill-rule="evenodd" stroke="#000" stroke-linecap="butt" stroke-linejoin="miter" stroke-opacity="1" stroke-width=".8" d="m 320.916,358.358 c -0.891,-0.737 -7.878,10.287 -6.333,11.431 0.929,0.695 6.731,-11.038 6.333,-11.431 z"/><ellipse id="ellipse17" cx="288.865" cy="374.587" fill="#fff" fill-opacity="1" fill-rule="evenodd" stroke="#000" stroke-linecap="butt" stroke-linejoin="miter" stroke-opacity="1" stroke-width=".8" rx="3.012" ry="3.398" transform="matrix(0.9253,0,0,0.933788,22.0283,24.352)"/><path id="path18" fill="#020202" fill-opacity="1" fill-rule="evenodd" stroke="#000" stroke-linecap="butt" stroke-linejoin="miter" stroke-opacity="1" stroke-width=".8" d="m 320.916,358.358 c -0.441,-0.512 -2.781,11.368 -1.699,11.894 0.929,0.695 2.547,-11.276 1.699,-11.894 z" transform="translate(-8.0321,-1.54463)"/><path id="path21" fill="#fff" fill-opacity="1" fill-rule="evenodd" stroke="#000" stroke-linecap="butt" stroke-linejoin="miter" stroke-opacity="1" stroke-width=".8" d="m 321.366,357.908 c -2.771,1.959 1.521,13.045 8.58,6.572 -5.546,0.163 -7.396,-1.461 -8.58,-6.572 z" transform="translate(-38.3069,14.983)"/></g></g></svg>